<mxfile host="drawio-plugin" modified="2022-02-13T13:59:56.419Z" agent="5.0 (Macintosh; Intel Mac OS X 12_0_1) AppleWebKit/537.36 (KHTML, like Gecko) Chrome/89.0.4389.114 Safari/537.36" etag="nicwSZMCtSrbc2rzdtfx" version="15.5.4" type="embed"><diagram id="23iRSUPoRavnBvh4doch" name="Page-1"><mxGraphModel dx="772" dy="745" grid="1" gridSize="10" guides="1" tooltips="1" connect="1" arrows="1" fold="1" page="1" pageScale="1" pageWidth="827" pageHeight="1169" math="0" shadow="0"><root><mxCell id="0"/><mxCell id="1" parent="0"/><mxCell id="2" style="edgeStyle=orthogonalEdgeStyle;rounded=0;orthogonalLoop=1;jettySize=auto;html=1;" edge="1" parent="1" source="3" target="16"><mxGeometry relative="1" as="geometry"/></mxCell><mxCell id="3" value="START" style="rounded=1;whiteSpace=wrap;html=1;" vertex="1" parent="1"><mxGeometry x="299" y="30" width="120" height="60" as="geometry"/></mxCell><mxCell id="4" value="END" style="rounded=1;whiteSpace=wrap;html=1;" vertex="1" parent="1"><mxGeometry x="299" y="610" width="120" height="60" as="geometry"/></mxCell><mxCell id="6" value="YES" style="edgeStyle=orthogonalEdgeStyle;rounded=0;orthogonalLoop=1;jettySize=auto;html=1;" edge="1" parent="1" source="7" target="38"><mxGeometry relative="1" as="geometry"><mxPoint x="260" y="476.7500000000001" as="targetPoint"/></mxGeometry></mxCell><mxCell id="44" value="NO" style="edgeStyle=orthogonalEdgeStyle;rounded=0;orthogonalLoop=1;jettySize=auto;html=1;entryX=0.5;entryY=0;entryDx=0;entryDy=0;" edge="1" parent="1" source="7" target="34"><mxGeometry relative="1" as="geometry"/></mxCell><mxCell id="7" value="If there are less than &quot;half of the size of intik&quot;&lt;br&gt;&amp;nbsp;repetitions" style="rhombus;whiteSpace=wrap;html=1;" vertex="1" parent="1"><mxGeometry x="319" y="366.75" width="80" height="80" as="geometry"/></mxCell><mxCell id="15" style="edgeStyle=orthogonalEdgeStyle;rounded=0;orthogonalLoop=1;jettySize=auto;html=1;entryX=0.5;entryY=0;entryDx=0;entryDy=0;" edge="1" parent="1" source="16" target="24"><mxGeometry relative="1" as="geometry"/></mxCell><mxCell id="16" value="Input value into intik" style="shape=parallelogram;perimeter=parallelogramPerimeter;whiteSpace=wrap;html=1;fixedSize=1;" vertex="1" parent="1"><mxGeometry x="284" y="150" width="150" height="60" as="geometry"/></mxCell><mxCell id="37" style="edgeStyle=orthogonalEdgeStyle;rounded=0;orthogonalLoop=1;jettySize=auto;html=1;" edge="1" parent="1" source="24" target="7"><mxGeometry relative="1" as="geometry"/></mxCell><mxCell id="24" value="max = 0" style="rounded=0;whiteSpace=wrap;html=1;" vertex="1" parent="1"><mxGeometry x="299" y="260" width="120" height="60" as="geometry"/></mxCell><mxCell id="45" style="edgeStyle=orthogonalEdgeStyle;rounded=0;orthogonalLoop=1;jettySize=auto;html=1;" edge="1" parent="1" source="34" target="4"><mxGeometry relative="1" as="geometry"/></mxCell><mxCell id="34" value="Ourput max-element of intik" style="shape=parallelogram;perimeter=parallelogramPerimeter;whiteSpace=wrap;html=1;fixedSize=1;" vertex="1" parent="1"><mxGeometry x="284" y="500" width="150" height="60" as="geometry"/></mxCell><mxCell id="39" style="edgeStyle=orthogonalEdgeStyle;rounded=0;orthogonalLoop=1;jettySize=auto;html=1;" edge="1" parent="1" source="38" target="7"><mxGeometry relative="1" as="geometry"><Array as="points"><mxPoint x="180" y="380"/></Array></mxGeometry></mxCell><mxCell id="40" value="NO" style="edgeLabel;html=1;align=center;verticalAlign=middle;resizable=0;points=[];" vertex="1" connectable="0" parent="39"><mxGeometry x="0.1027" y="-3" relative="1" as="geometry"><mxPoint as="offset"/></mxGeometry></mxCell><mxCell id="42" value="YES" style="edgeStyle=orthogonalEdgeStyle;rounded=0;orthogonalLoop=1;jettySize=auto;html=1;" edge="1" parent="1" source="38" target="41"><mxGeometry relative="1" as="geometry"><Array as="points"><mxPoint x="100" y="480"/></Array></mxGeometry></mxCell><mxCell id="38" value="&amp;nbsp;if i-element of intik is bigger than max-element" style="rhombus;whiteSpace=wrap;html=1;" vertex="1" parent="1"><mxGeometry x="140" y="440" width="80" height="80" as="geometry"/></mxCell><mxCell id="43" style="edgeStyle=orthogonalEdgeStyle;rounded=0;orthogonalLoop=1;jettySize=auto;html=1;" edge="1" parent="1" source="41" target="7"><mxGeometry relative="1" as="geometry"><Array as="points"><mxPoint x="280" y="397"/><mxPoint x="280" y="397"/></Array></mxGeometry></mxCell><mxCell id="41" value="max = i" style="whiteSpace=wrap;html=1;" vertex="1" parent="1"><mxGeometry x="40" y="366.75" width="120" height="60" as="geometry"/></mxCell></root></mxGraphModel></diagram></mxfile>